<svg width="99" height="38" viewBox="0 0 99 38" fill="none" xmlns="http://www.w3.org/2000/svg">
<path d="M11.5002 28.1668C10.2321 28.1668 9.04044 27.9261 7.92516 27.4445C6.80989 26.9629 5.83975 26.31 5.01475 25.4856C4.18975 24.6612 3.53678 23.6911 3.05583 22.5752C2.57489 21.4593 2.33411 20.2676 2.3335 19.0002C2.33289 17.7327 2.57366 16.5411 3.05583 15.4252C3.538 14.3093 4.19097 13.3391 5.01475 12.5147C5.83853 11.6904 6.80866 11.0374 7.92516 10.5558C9.04166 10.0743 10.2333 9.8335 11.5002 9.8335C12.767 9.8335 13.9587 10.0743 15.0752 10.5558C16.1917 11.0374 17.1618 11.6904 17.9856 12.5147C18.8094 13.3391 19.4626 14.3093 19.9454 15.4252C20.4282 16.5411 20.6687 17.7327 20.6668 19.0002C20.665 20.2676 20.4242 21.4593 19.9445 22.5752C19.4648 23.6911 18.8118 24.6612 17.9856 25.4856C17.1594 26.31 16.1892 26.9632 15.0752 27.4454C13.9611 27.9276 12.7694 28.1681 11.5002 28.1668Z" fill="#4CAF50"/>
<path d="M30.225 10.55H33.725V25.225H39.475V28H30.225V10.55ZM58.7246 19.225C58.7246 24.475 54.7496 28.175 49.7996 28.175C44.8746 28.175 40.8496 24.475 40.8496 19.225C40.8496 14 44.8746 10.3 49.7996 10.3C54.7746 10.3 58.7246 14 58.7246 19.225ZM44.4496 19.225C44.4496 22.775 46.6246 25.05 49.7996 25.05C52.9496 25.05 55.1246 22.775 55.1246 19.225C55.1246 15.675 52.9496 13.45 49.7996 13.45C46.6246 13.45 44.4496 15.675 44.4496 19.225ZM69.3785 10.325C73.2785 10.325 76.3785 12.3 77.5035 15.8H73.4785C72.6785 14.325 71.2285 13.55 69.3785 13.55C66.2535 13.55 64.0785 15.775 64.0785 19.25C64.0785 22.8 66.2785 25 69.5285 25C72.2285 25 73.9535 23.45 74.4785 20.975H68.4785V18.3H77.9285V21.35C77.2285 24.9 74.0535 28.15 69.4035 28.15C64.3285 28.15 60.4785 24.475 60.4785 19.25C60.4785 14.025 64.3285 10.325 69.3785 10.325ZM97.543 19.225C97.543 24.475 93.568 28.175 88.618 28.175C83.693 28.175 79.668 24.475 79.668 19.225C79.668 14 83.693 10.3 88.618 10.3C93.593 10.3 97.543 14 97.543 19.225ZM83.268 19.225C83.268 22.775 85.443 25.05 88.618 25.05C91.768 25.05 93.943 22.775 93.943 19.225C93.943 15.675 91.768 13.45 88.618 13.45C85.443 13.45 83.268 15.675 83.268 19.225Z" fill="#48494A"/>
</svg>
